<svg width="788" height="703" viewBox="0 0 788 703" fill="none" xmlns="http://www.w3.org/2000/svg">
<rect width="788" height="703" fill="#070625"/>
<g style="mix-blend-mode:hard-light">
<circle cx="579" cy="237" r="1" fill="#C4C4C4"/>
<circle cx="599" cy="597" r="1" fill="#C4C4C4"/>
<circle cx="589" cy="287" r="1" fill="#C4C4C4"/>
<circle cx="621" cy="614" r="1" fill="#C4C4C4"/>
<circle cx="241" cy="395" r="1" fill="#C4C4C4"/>
<circle cx="639" cy="287" r="1" fill="#C4C4C4"/>
<circle cx="710" cy="298" r="2" fill="#C4C4C4"/>
<circle cx="469" cy="577" r="1" fill="#C4C4C4"/>
<circle cx="390" cy="488" r="2" fill="#C4C4C4"/>
<circle cx="540" cy="228" r="2" fill="#C4C4C4"/>
<circle cx="251.5" cy="234.5" r="1.5" fill="#E7E7E7"/>
<circle cx="321.5" cy="369.5" r="1.5" fill="#E7E7E7"/>
<circle cx="336.5" cy="391.5" r="1.5" fill="#E7E7E7"/>
<circle cx="307" cy="172" r="1" fill="#C4C4C4"/>
<circle cx="421.5" cy="159.5" r="1.5" fill="#E7E7E7"/>
<circle cx="291.5" cy="162.5" r="1.5" fill="#E7E7E7"/>
<circle cx="751.5" cy="417.5" r="1.5" fill="#E7E7E7"/>
<circle cx="427.5" cy="360.5" r="1.5" fill="#E7E7E7"/>
<circle cx="527.5" cy="680.5" r="1.5" fill="#E7E7E7"/>
<circle cx="617.5" cy="570.5" r="1.5" fill="#E7E7E7"/>
<circle cx="248.5" cy="494.5" r="1.5" fill="#E7E7E7"/>
<circle cx="625" cy="592" r="1" fill="#C4C4C4"/>
<circle cx="239" cy="517" r="1" fill="#C4C4C4"/>
<circle cx="269" cy="522" r="1" fill="#C4C4C4"/>
<circle cx="666.5" cy="616.5" r="1.5" fill="#E7E7E7"/>
<circle cx="715" cy="639" r="1" fill="#C4C4C4"/>
<circle cx="683" cy="608" r="1" fill="#C4C4C4"/>
<circle cx="194" cy="694" r="1" fill="#C4C4C4"/>
<circle cx="222" cy="688" r="1" fill="#C4C4C4"/>
<circle cx="324" cy="657" r="1" fill="#C4C4C4"/>
<circle cx="213" cy="679" r="1" fill="#C4C4C4"/>
<circle cx="593" cy="688" r="1" fill="#C4C4C4"/>
<circle cx="749" cy="192" r="1" fill="#C4C4C4"/>
<circle cx="726" cy="200" r="1" fill="#C4C4C4"/>
<circle cx="274.5" cy="402.5" r="2.5" fill="#E7E7E7"/>
<circle cx="372.5" cy="253.5" r="2.5" fill="#E7E7E7"/>
<circle cx="304.5" cy="650.5" r="2.5" fill="#E7E7E7"/>
<circle cx="762.5" cy="534.5" r="2.5" fill="#E7E7E7"/>
<circle cx="668.5" cy="498.5" r="2.5" fill="#E7E7E7"/>
</g>
<g opacity="0.85">
<ellipse cx="192.343" cy="435.786" rx="0.926573" ry="0.927481" transform="rotate(180 192.343 435.786)" fill="#C4C4C4"/>
<ellipse cx="173.811" cy="101.893" rx="0.926573" ry="0.927481" transform="rotate(180 173.811 101.893)" fill="#C4C4C4"/>
<ellipse cx="183.077" cy="389.412" rx="0.926573" ry="0.927481" transform="rotate(180 183.077 389.412)" fill="#C4C4C4"/>
<ellipse cx="153.427" cy="86.126" rx="0.926573" ry="0.927481" transform="rotate(180 153.427 86.126)" fill="#C4C4C4"/>
<ellipse cx="505.524" cy="289.244" rx="0.926573" ry="0.927481" transform="rotate(180 505.524 289.244)" fill="#C4C4C4"/>
<ellipse cx="136.748" cy="389.412" rx="0.926573" ry="0.927481" transform="rotate(180 136.748 389.412)" fill="#C4C4C4"/>
<ellipse cx="70.9615" cy="379.21" rx="1.85315" ry="1.85496" transform="rotate(180 70.9615 379.21)" fill="#C4C4C4"/>
<ellipse cx="294.266" cy="120.443" rx="0.926573" ry="0.927481" transform="rotate(180 294.266 120.443)" fill="#C4C4C4"/>
<ellipse cx="367.465" cy="202.989" rx="1.85315" ry="1.85496" transform="rotate(180 367.465 202.989)" fill="#C4C4C4"/>
<ellipse cx="228.479" cy="444.134" rx="1.85315" ry="1.85496" transform="rotate(180 228.479 444.134)" fill="#C4C4C4"/>
<ellipse cx="495.795" cy="438.105" rx="1.38986" ry="1.39122" transform="rotate(180 495.795 438.105)" fill="#E7E7E7"/>
<ellipse cx="430.935" cy="312.895" rx="1.38986" ry="1.39122" transform="rotate(180 430.935 312.895)" fill="#E7E7E7"/>
<ellipse cx="417.037" cy="292.49" rx="1.38986" ry="1.39122" transform="rotate(180 417.037 292.49)" fill="#E7E7E7"/>
<ellipse cx="444.371" cy="496.073" rx="0.926573" ry="0.927481" transform="rotate(180 444.371 496.073)" fill="#C4C4C4"/>
<ellipse cx="32.5087" cy="268.376" rx="1.38986" ry="1.39122" transform="rotate(180 32.5087 268.376)" fill="#E7E7E7"/>
<ellipse cx="332.719" cy="321.242" rx="1.38986" ry="1.39122" transform="rotate(180 332.719 321.242)" fill="#E7E7E7"/>
<ellipse cx="240.061" cy="24.4485" rx="1.38986" ry="1.39122" transform="rotate(180 240.061 24.4485)" fill="#E7E7E7"/>
<ellipse cx="156.67" cy="126.471" rx="1.38986" ry="1.39122" transform="rotate(180 156.67 126.471)" fill="#E7E7E7"/>
<ellipse cx="498.575" cy="196.96" rx="1.38986" ry="1.39122" transform="rotate(180 498.575 196.96)" fill="#E7E7E7"/>
<ellipse cx="149.72" cy="106.531" rx="0.926573" ry="0.927481" transform="rotate(180 149.72 106.531)" fill="#C4C4C4"/>
<ellipse cx="507.378" cy="176.092" rx="0.926573" ry="0.927481" transform="rotate(180 507.378 176.092)" fill="#C4C4C4"/>
<ellipse cx="479.58" cy="171.454" rx="0.926573" ry="0.927481" transform="rotate(180 479.58 171.454)" fill="#C4C4C4"/>
<ellipse cx="111.267" cy="83.8073" rx="1.38986" ry="1.39122" transform="rotate(180 111.267 83.8073)" fill="#E7E7E7"/>
<ellipse cx="66.3286" cy="62.9389" rx="0.926573" ry="0.927481" transform="rotate(180 66.3286 62.9389)" fill="#C4C4C4"/>
<ellipse cx="95.979" cy="91.6908" rx="0.926573" ry="0.927481" transform="rotate(180 95.979 91.6908)" fill="#C4C4C4"/>
<ellipse cx="549.073" cy="11.9275" rx="0.926573" ry="0.927481" transform="rotate(180 549.073 11.9275)" fill="#C4C4C4"/>
<ellipse cx="523.129" cy="17.4924" rx="0.926573" ry="0.927481" transform="rotate(180 523.129 17.4924)" fill="#C4C4C4"/>
<ellipse cx="428.619" cy="46.2443" rx="0.926573" ry="0.927481" transform="rotate(180 428.619 46.2443)" fill="#C4C4C4"/>
<ellipse cx="531.469" cy="25.8397" rx="0.926573" ry="0.927481" transform="rotate(180 531.469 25.8397)" fill="#C4C4C4"/>
<ellipse cx="179.371" cy="17.4924" rx="0.926573" ry="0.927481" transform="rotate(180 179.371 17.4924)" fill="#C4C4C4"/>
<ellipse cx="34.8252" cy="477.523" rx="0.926573" ry="0.927481" transform="rotate(180 34.8252 477.523)" fill="#C4C4C4"/>
<ellipse cx="56.1364" cy="470.103" rx="0.926573" ry="0.927481" transform="rotate(180 56.1364 470.103)" fill="#C4C4C4"/>
<ellipse cx="474.484" cy="282.288" rx="2.31643" ry="2.3187" transform="rotate(180 474.484 282.288)" fill="#E7E7E7"/>
<ellipse cx="383.68" cy="420.483" rx="2.31643" ry="2.3187" transform="rotate(180 383.68 420.483)" fill="#E7E7E7"/>
<ellipse cx="446.687" cy="52.2729" rx="2.31643" ry="2.3187" transform="rotate(180 446.687 52.2729)" fill="#E7E7E7"/>
<ellipse cx="22.3164" cy="159.861" rx="2.31643" ry="2.3187" transform="rotate(180 22.3164 159.861)" fill="#E7E7E7"/>
<ellipse cx="109.414" cy="193.25" rx="2.31643" ry="2.3187" transform="rotate(180 109.414 193.25)" fill="#E7E7E7"/>
</g>
</svg>
